                        <svg xmlns="http://www.w3.org/2000/svg" width="16" height="16" style="color: rgb(249, 17, 85);">
                            <path fill="currentColor"
                                d="M6.285 2.248a6 6 0 0 1 7.138 3.18 1 1 0 1 0 1.807-.857A8 8 0 0 0 5.715.33a1 1 0 0 0 .57 1.917ZM2.249 9.715a1 1 0 0 0-1.917.57 8.003 8.003 0 0 0 11.097 4.945 1 1 0 0 0-.858-1.807 5.973 5.973 0 0 1-2.57.577 5.986 5.986 0 0 1-4.433-1.956h.481v-1.493l1.04 1.493H6.46l-1.12-1.493c.285-.095.5-.251.647-.465.147-.215.22-.46.22-.74 0-.242-.055-.462-.165-.661a1.196 1.196 0 0 0-.506-.48c-.228-.12-.513-.18-.856-.18H2.951v3.218a5.967 5.967 0 0 1-.702-1.528Zm2.28-.726c.358 0 .538.142.538.425 0 .146-.047.256-.139.327-.092.074-.226.11-.399.11h-.48v-.862h.48ZM2.76 3.2v1H1.28v.476h1.3v.948h-1.3v.597h1.567v.844l-.115.155H.18V3.2h2.58Z">
                            </path>
                            <path fill="currentColor" d="M7.27 7.105v.115h-1.3l-.927-1.274L4.12 7.22H2.847v-.155l1.474-1.98L2.881 3.2H4.27l.776 1.033.775-1.033h1.387l-1.44 1.883 1.503 2.02Z"></path>
                            <path fill="currentColor"
                                d="M7.27 7.105V3.2h1.58c.55 0 .962.129 1.234.387.272.259.408.603.408 1.031 0 .429-.137.772-.408 1.03-.272.26-.684.388-1.235.388h-.48V7.22h-1.01l-.088-.115Zm1.1-2.032h.45a.615.615 0 0 0 .394-.114c.096-.077.144-.19.144-.34 0-.149-.048-.261-.144-.338a.615.615 0 0 0-.394-.115h-.45v.907Zm2.753 2.865c.455 0 .916.113 1.382.34l-.474.97a1.979 1.979 0 0 0-.51-.242 1.668 1.668 0 0 0-.479-.08.394.394 0 0 0-.188.034c-.04.023-.06.061-.06.115a.15.15 0 0 0 .046.107c.03.033.087.07.168.111l.832.425c.243.123.429.27.558.443.13.172.194.404.194.694 0 .414-.136.73-.408.948-.272.218-.666.327-1.182.327-.594 0-1.164-.15-1.712-.453l.503-1.045c.238.168.461.292.665.373.204.08.405.12.601.12a.636.636 0 0 0 .255-.04.14.14 0 0 0 .086-.138.158.158 0 0 0-.046-.114.59.59 0 0 0-.15-.098l-.885-.442a1.299 1.299 0 0 1-.534-.468 1.226 1.226 0 0 1-.183-.67c0-.37.13-.666.39-.887.261-.22.637-.33 1.131-.33Zm4.635.339a3.148 3.148 0 0 0-1.381-.339c-.494 0-.87.11-1.131.33-.26.22-.39.517-.39.888 0 .252.06.476.182.669.121.194.3.35.534.468l.885.442a.59.59 0 0 1 .15.098c.032.03.047.068.047.114a.14.14 0 0 1-.087.138.633.633 0 0 1-.254.04 1.63 1.63 0 0 1-.601-.12 3.222 3.222 0 0 1-.666-.373l-.503 1.045a3.49 3.49 0 0 0 1.712.453c.517 0 .911-.109 1.182-.327.272-.218.408-.534.408-.948 0-.29-.064-.522-.194-.694a1.56 1.56 0 0 0-.557-.443l-.833-.425a.66.66 0 0 1-.168-.111.148.148 0 0 1-.046-.107c0-.054.02-.092.06-.115a.396.396 0 0 1 .188-.034c.143 0 .303.027.48.08.177.055.347.135.51.242l.473-.97Zm-6.564.747v-1H6.615v4.02H9.28v-.999H7.714v-.597h1.301V9.5H7.714v-.476h1.48Z">
                            </path>
                        </svg>
